<svg xmlns="http://www.w3.org/2000/svg" xmlns:xlink="http://www.w3.org/1999/xlink" width="801.197" height="614.273"><path d="M543.773 612.311l-2.401 1.957H442.5l-1.694-1.957a109.35 109.35 0 0 1-11.999-17.641c-8.117-14.623-10.914-33.793-10.914-53.318l.033-3.578c.091-5.477.395-10.963.847-16.358l.255-2.796c.732-7.739 1.76-15.272 2.928-22.312l.452-2.665c2.38-13.982 5.571-27.814 9.557-41.425a57.56 57.56 0 0 1 .386.099l5.058 1.456c7.089 2.105 20.404 6.349 35.759 12.657l2.541 1.053c12.99 5.355 25.564 11.67 37.617 18.891l2.229 1.373v.066l-1.62 52.446 14.475-43.662q4.429 3.368 8.463 6.982a63.68 63.68 0 0 1 2.196 2.031c6.11 5.6 11.324 12.104 15.461 19.286 21.654 39.04 12.567 67.743-10.757 87.415z" fill="#f2f2f2"/><g fill="#fff"><path d="M529.833 614.268h-2.632l-.082-1.957c-1.061-19.73-9.523-41.516-21.046-62.545l-1.275-2.311c-5.593-10.001-11.827-19.787-18.266-29.089l-1.514-2.179c-8.57-12.229-17.419-23.546-25.413-33.209-.559-.691-1.135-1.365-1.702-2.031-11.851-14.211-21.63-24.566-25.553-28.629l-1.348-1.382c-.288-.313-.461-.477-.494-.51l.921-.921.008-.025.938-.921c.033.041.6.584 1.603 1.628l3.43 3.586c4.967 5.264 13.183 14.22 22.691 25.577l1.686 2.023c6.489 7.838 13.521 16.72 20.487 26.268q2.627 3.602 5.099 7.147l1.521 2.171q10.449 15.075 18.25 28.999l1.299 2.327c13.258 24.179 20.396 45.595 21.318 64.026l.074 1.957z"/><path d="M474.615 464.505l-1.447 1.924a70.24 70.24 0 0 1-13.068 12.92l-2.196 1.596a72.04 72.04 0 0 1-6.333 3.948c-8.972 4.997-18.923 7.982-29.163 8.751-.329.033-.666.058-.995.074l-.444 2.656c.329-.016.658-.033.987-.066a73.3 73.3 0 0 0 30.898-9.104 75.18 75.18 0 0 0 6.752-4.227 69.82 69.82 0 0 0 2.179-1.604c5.244-3.983 9.928-8.656 13.924-13.891l1.406-1.916-2.5-1.061zm39.608 20.01l-.897 1.859a70.84 70.84 0 0 1-25.955 28.415 52.16 52.16 0 0 1-2.352 1.398l-.732.419a71.28 71.28 0 0 1-65.259 2.015l-.724-.345-.238 2.821.707.321a73.88 73.88 0 0 0 66.789-2.5l.971-.551 2.36-1.406a73.4 73.4 0 0 0 26.663-29.147 49.15 49.15 0 0 0 .921-1.875l-2.253-1.423zm23.086 17.196l-.436 1.867a71.08 71.08 0 0 1-29.73 42.379l-2.344 1.497-2.566 1.497c-27.502 15.223-61.721 10.686-84.307-11.177-.189-.173-.37-.354-.551-.535l.008 3.652c.164.156.337.313.51.461 23.484 21.276 57.9 25.259 85.623 9.91.872-.477 1.727-.97 2.558-1.497a64.37 64.37 0 0 0 2.368-1.48 73.81 73.81 0 0 0 30.627-42.675l.452-1.785c-.715-.724-1.464-1.406-2.212-2.114zm-68.953-133.923H0V16.399h468.356z"/></g><g fill="#e6e6e6"><circle cx="113.491" cy="71.094" r="18.643"/><path d="M156.548 58.665a3.11 3.11 0 0 0-3.102 3.107 3.11 3.11 0 0 0 3.102 3.107h226.859a3.11 3.11 0 0 0 3.102-3.107 3.11 3.11 0 0 0-3.102-3.107zm0 18.643a3.11 3.11 0 0 0-2.694 1.548c-.557.96-.56 2.145-.007 3.107a3.11 3.11 0 0 0 2.688 1.559h143.422a3.11 3.11 0 0 0 2.696-1.552c.557-.962.556-2.148 0-3.11s-1.584-1.554-2.696-1.552zm311.808 290.48H0V16.399h468.356zM5.242 362.546h457.871V21.641H5.242z"/></g><path d="M26.178 123.558v209h416v-209zm414 51.75h-101.5v-49.75h101.5zm-205 0v-49.75h101.5v49.75zm101.5 2v49.75h-101.5v-49.75zm-103.5-2h-101.5v-49.75h101.5zm0 2v49.75h-101.5v-49.75zm-103.5 49.75h-101.5v-49.75h101.5zm0 2v49.75h-101.5v-49.75zm2 0h101.5v49.75h-101.5zm101.5 51.75v49.75h-101.5v-49.75zm2 0h101.5v49.75h-101.5zm0-2v-49.75h101.5v49.75zm103.5-49.75h101.5v49.75h-101.5zm0-2v-49.75h101.5v49.75zm-209-101.5v49.75h-101.5v-49.75zm-101.5 155.25h101.5v49.75h-101.5zm310.5 49.75v-49.75h101.5v49.75z" fill="#e4e4e4"/><use xlink:href="#B" fill="#6c63ff"/><g fill="#fff"><use xlink:href="#C"/><use xlink:href="#D"/><use xlink:href="#E"/><use xlink:href="#F"/><use xlink:href="#F" x="-0.09" y="6.3"/></g><use xlink:href="#B" x="-90" y="116" fill="#f0f0f0"/><g fill="#fff"><use xlink:href="#C" x="-90" y="116"/><use xlink:href="#D" x="-90" y="116"/><use xlink:href="#E" x="-90" y="116"/><use xlink:href="#F" x="-90" y="116"/><use xlink:href="#F" x="-90.09" y="122.3"/></g><use xlink:href="#B" x="126" y="63" fill="#f0f0f0"/><g fill="#fff"><use xlink:href="#C" x="126" y="63"/><use xlink:href="#D" x="126" y="63"/><use xlink:href="#E" x="126" y="63"/><use xlink:href="#F" x="126" y="63"/><use xlink:href="#F" x="125.91" y="69.3"/></g><use xlink:href="#B" x="108" y="53" fill="#6c63ff"/><g fill="#fff"><use xlink:href="#C" x="108" y="53"/><use xlink:href="#D" x="108" y="53"/><use xlink:href="#E" x="108" y="53"/><use xlink:href="#F" x="108" y="53"/><use xlink:href="#F" x="107.91" y="59.3"/></g><use xlink:href="#B" x="260.667" y="144.349" fill="#6c63ff"/><g fill="#fff"><path d="M424.342 287.845l.023-1.575 21.444.767-.023 1.575-21.444-.767z"/><use xlink:href="#F" x="260.847" y="131.749"/><path d="M424.161 300.446l.023-1.575 21.444.766-.022 1.575-21.445-.766zm-.09 6.3l.023-1.575 21.444.766-.023 1.575-21.444-.766z"/><use xlink:href="#F" x="260.576" y="150.65"/></g><path d="M412.949 187.786l-41.393-.937c-4.14-16.039-2.276-31.31 1.028-45.382l41.393.937a90.63 90.63 0 0 0-1.028 45.382z" fill="#f0f0f0"/><g fill="#fff"><use xlink:href="#C" x="216" y="8"/><use xlink:href="#D" x="216" y="8"/><use xlink:href="#E" x="216" y="8"/><use xlink:href="#F" x="216" y="8"/><use xlink:href="#F" x="215.91" y="14.3"/></g><path d="M455.383 290.69c2.89-.712 5.316-2.666 6.625-5.339s1.369-5.787.161-8.507l26.099-24.409-18.056-4.339-22.016 23.845a10.11 10.11 0 0 0 7.187 18.75z" fill="#ffb6b6"/><path d="M468.866 271.028l-12.172-17.161 45.718-47.287 10.616-74.536c1.063-7.459 5.387-14.059 11.802-18.01s14.255-4.846 21.394-2.439h0c13.258 4.485 20.383 18.855 15.927 32.122l-27.085 80.358z" fill="#e4e4e4"/><path fill="#ffb6b6" d="M554.708 588.617l-13.512-.001-6.428-52.117 19.943.001-.003 52.117z"/><path d="M561.977 614.273h-9.588l-1.711-9.052-4.383 9.052h-25.429c-2.502 0-4.713-1.627-5.458-4.015s.151-4.984 2.209-6.405l20.307-14.025v-9.151l21.359 1.275z" fill="#2f2e41"/><path fill="#ffb6b6" d="M638.069 574.867l-11.869 6.458-30.557-42.706 17.517-9.531 24.909 45.779z"/><path d="M656.716 593.928l-8.422 4.583-5.83-7.133.477 10.046-22.336 12.154c-2.197 1.196-4.917.824-6.713-.918s-2.25-4.449-1.121-6.682l11.134-22.025-4.374-8.038 19.371-9.089zm-96.315-23.87h-27.924v-99.435l-17.287-64.826a371.11 371.11 0 0 1-9.709-142.301l.024-.195.15-.126c.444-.373 44.689-36.957 72.675-8.971 18.864 18.864 1.138 86.696.146 90.419v116.935z" fill="#2f2e41"/><path d="M496.977 281.558l9-90c-1.169-2.454-18-18-.402-45.333l19.008-44.618 35.597-.553.15.15c17.009 16.973 24.386 41.337 19.648 64.894l-10.489 52.447 9.088 36.354z" fill="#e4e4e4"/><path fill="#2f2e41" d="M543.742 471.137l57.364 80.687 22.005-15.645-47.909-98.451-31.46 33.409z"/><circle cx="539.056" cy="59.668" r="32.87" fill="#ffb6b6"/><path opacity=".1" d="M530.977 178.558l9 54-9 45h-18l8.182-45 9.818-54z"/><path d="M539.564 323.923c2.214-1.988 3.434-4.855 3.331-7.829s-1.518-5.75-3.864-7.581l11.532-33.823-17.972 4.673-8.196 31.402a10.11 10.11 0 0 0 15.168 13.158z" fill="#ffb6b6"/><path d="M542.201 300.229l-18.818-9.409 18.069-63.243-25.729-70.755c-2.575-7.081-1.867-14.94 1.932-21.446s10.294-10.986 17.726-12.225h0c13.808-2.286 26.86 7.037 29.175 20.84l13.941 83.646z" fill="#e4e4e4"/><path d="M801.197 613.078c.001.316-.124.619-.348.842s-.527.348-.842.348h-647.29a1.19 1.19 0 0 1-1.031-1.785 1.19 1.19 0 0 1 1.031-.595h647.29c.657.002 1.188.533 1.19 1.19z" fill="#cacaca"/><path d="M666.894 58.061c-4.147 6.732-12.931 9.7-20.722 8.352s-14.561-6.377-19.562-12.501-8.459-13.335-11.863-20.471-6.847-14.352-11.822-20.497-11.71-11.213-19.49-12.624c-4.234-.768-9.03-.261-12.119 2.734-2.13 2.245-3.293 5.237-3.238 8.331-2.734-.963-5.769-.501-8.092 1.232s-3.632 4.509-3.49 7.405l-.344-.01c-14.496-8.242-36.499-3.454-36.499 5.546-7.954 0-17.676 7.855-17.676 19.784h0c16.448 0 26.128 21.075 16.526 36.186a103.29 103.29 0 0 1-8.18 11.031h20.569c1.726-2.476 2.767-5.364 3.018-8.371.756 2.732 1.207 5.54 1.346 8.371 0 0 56.185 7.24 41.683-48.763a5.87 5.87 0 0 0 2.718-.824c2.19-1.32 3.382-4.111 3.591-6.943q.813.217 1.621.434c3.866 1.044 7.881 2.396 10.534 5.394 4.484 5.068 3.541 12.761 5.169 19.329 1.964 7.921 7.838 14.328 14.364 19.228 7.011 5.265 15.201 9.265 23.93 10.096s18.017-1.824 24.065-8.172 8.154-16.575 3.963-24.276z" fill="#2f2e41"/><defs ><path id="B" d="M196.949 179.786l-41.393-.937c-4.14-16.039-2.276-31.31 1.028-45.382l41.393.937a90.63 90.63 0 0 0-1.027 45.382z"/><path id="C" d="M163.676 143.496l.022-1.575 21.445.766-.023 1.575-21.444-.766z"/><path id="D" d="M163.586 149.796l.022-1.575 21.444.767-.022 1.575-21.444-.767z"/><path id="E" d="M163.495 156.096l.023-1.575 21.444.767-.022 1.575-21.445-.767z"/><path id="F" d="M163.405 162.396l.022-1.575 21.445.767-.023 1.575-21.444-.767z"/></defs></svg>