<svg xmlns="http://www.w3.org/2000/svg" width="200" height="200" viewBox="0 0 2560 2560"><g fill="#5865F2"><g><path d="M367 2212 c-136 -136 -247 -252 -247 -257 0 -5 109 -119 242 -252 l242 -242 7 -223 c4 -123 10 -236 14 -253 44 -210 115 -350 251 -495 86 -90 166 -148 285 -205 160 -75 234 -90 444 -89 153 0 192 3 260 22 179 49 378 177 514 331 74 85 101 127 101 161 0 20 -4 20 -382 20 l-382 0 -219 219 c-191 190 -218 221 -208 237 5 11 99 111 208 223 l198 203 393 6 392 5 0 22 c0 58 -195 273 -329 364 -76 52 -228 124 -293 140 -70 17 -464 15 -530 -3 -63 -17 -140 -47 -209 -81 l-50 -26 -47 40 c-26 22 -123 116 -217 210 -93 94 -174 171 -180 171 -6 0 -121 -111 -258 -248z"></path></g></g></svg>